<svg width="221" height="31" viewBox="0 0 221 31" fill="none" xmlns="http://www.w3.org/2000/svg">
<path d="M23.9766 19.5547H7.94141V14.4375H23.9766V19.5547ZM26.2617 31H7.94141C7.23828 31 6.47005 30.8763 5.63672 30.6289C4.80339 30.3815 4.02865 29.9779 3.3125 29.418C2.60938 28.8451 2.01693 28.1094 1.53516 27.2109C1.06641 26.2995 0.832031 25.1862 0.832031 23.8711V5.55078C0.832031 5.19922 0.897135 4.86719 1.02734 4.55469C1.15755 4.24219 1.33333 3.96875 1.55469 3.73438C1.78906 3.5 2.0625 3.31771 2.375 3.1875C2.6875 3.05729 3.02604 2.99219 3.39062 2.99219H26.2617V8.07031H5.91016V23.8711C5.91016 24.5352 6.08594 25.043 6.4375 25.3945C6.78906 25.7461 7.30339 25.9219 7.98047 25.9219H26.2617V31ZM53.5469 23.8711C53.5469 24.7435 53.4362 25.5312 53.2148 26.2344C52.9935 26.9245 52.7005 27.5365 52.3359 28.0703C51.9714 28.5911 51.5482 29.0404 51.0664 29.418C50.5846 29.7826 50.0768 30.082 49.543 30.3164C49.0221 30.5508 48.4883 30.7266 47.9414 30.8438C47.4076 30.9479 46.8997 31 46.418 31H37.2578C36.3854 31 35.6042 30.8893 34.9141 30.668C34.224 30.4466 33.612 30.1536 33.0781 29.7891C32.5573 29.4115 32.1081 28.9818 31.7305 28.5C31.3659 28.0182 31.0664 27.5169 30.832 26.9961C30.5977 26.4622 30.4219 25.9284 30.3047 25.3945C30.2005 24.8477 30.1484 24.3398 30.1484 23.8711V16.9961C30.1484 15.694 30.3828 14.5938 30.8516 13.6953C31.3333 12.7839 31.9258 12.0482 32.6289 11.4883C33.3451 10.9154 34.1198 10.5052 34.9531 10.2578C35.7865 10.0104 36.5547 9.88672 37.2578 9.88672H46.418V14.9648H37.2969C36.6198 14.9648 36.1055 15.1406 35.7539 15.4922C35.4023 15.8307 35.2266 16.332 35.2266 16.9961V23.832C35.2266 24.5221 35.3958 25.043 35.7344 25.3945C36.0859 25.7461 36.5938 25.9219 37.2578 25.9219H46.418C47.1081 25.9219 47.6224 25.7461 47.9609 25.3945C48.2995 25.043 48.4688 24.5352 48.4688 23.8711V0.960938H53.5469V23.8711ZM81.4766 28.4414C81.4766 28.806 81.4115 29.1445 81.2812 29.457C81.151 29.7695 80.9688 30.043 80.7344 30.2773C80.513 30.4987 80.2461 30.6745 79.9336 30.8047C79.6341 30.9349 79.3086 31 78.957 31H67.4727C66.8477 31 66.1771 30.9284 65.4609 30.7852C64.7578 30.6419 64.0612 30.4141 63.3711 30.1016C62.681 29.776 62.0104 29.3724 61.3594 28.8906C60.7214 28.3958 60.1615 27.8034 59.6797 27.1133C59.1979 26.4102 58.8073 25.6029 58.5078 24.6914C58.2214 23.7799 58.0781 22.7513 58.0781 21.6055V9.88672H63.1562V21.6055C63.1562 22.2695 63.2669 22.8685 63.4883 23.4023C63.7227 23.9232 64.0352 24.3724 64.4258 24.75C64.8164 25.1276 65.2721 25.4206 65.793 25.6289C66.3268 25.8242 66.8997 25.9219 67.5117 25.9219H76.3984V9.88672H81.4766V28.4414ZM106.691 31H92.9219C92.2188 31 91.4505 30.8763 90.6172 30.6289C89.7839 30.3815 89.0091 29.9779 88.293 29.418C87.5898 28.8451 86.9974 28.1094 86.5156 27.2109C86.0469 26.2995 85.8125 25.1862 85.8125 23.8711V16.9961C85.8125 16.5143 85.8646 16.0065 85.9688 15.4727C86.0859 14.9388 86.2617 14.4115 86.4961 13.8906C86.7305 13.3568 87.0299 12.849 87.3945 12.3672C87.7721 11.8854 88.2214 11.4622 88.7422 11.0977C89.276 10.7331 89.888 10.4401 90.5781 10.2188C91.2682 9.9974 92.0495 9.88672 92.9219 9.88672H106.691V14.9648H92.9219C92.2578 14.9648 91.75 15.1341 91.3984 15.4727C91.0599 15.8112 90.8906 16.332 90.8906 17.0352V23.8711C90.8906 24.5352 91.0664 25.043 91.418 25.3945C91.7695 25.7461 92.2839 25.9219 92.9609 25.9219H106.691V31ZM132.531 24.0078C132.531 24.7109 132.408 25.4727 132.16 26.293C131.913 27.1003 131.509 27.8555 130.949 28.5586C130.402 29.2487 129.68 29.8281 128.781 30.2969C127.896 30.7656 126.815 31 125.539 31H116.379C115.676 31 114.914 30.8763 114.094 30.6289C113.286 30.3815 112.531 29.9844 111.828 29.4375C111.138 28.8776 110.559 28.1549 110.09 27.2695C109.621 26.3711 109.387 25.2839 109.387 24.0078C109.387 23.3047 109.51 22.543 109.758 21.7227C110.005 20.9023 110.402 20.1471 110.949 19.457C111.509 18.7539 112.232 18.168 113.117 17.6992C114.016 17.2305 115.103 16.9961 116.379 16.9961H125.539V21.8398H116.379C115.689 21.8398 115.155 22.0547 114.777 22.4844C114.4 22.901 114.211 23.4219 114.211 24.0469C114.211 24.7109 114.426 25.2318 114.855 25.6094C115.298 25.974 115.819 26.1562 116.418 26.1562H125.539C126.229 26.1562 126.763 25.9479 127.141 25.5312C127.518 25.1146 127.707 24.5938 127.707 23.9688V16.8789C127.707 16.2148 127.499 15.6875 127.082 15.2969C126.678 14.9062 126.164 14.7109 125.539 14.7109H114.387V9.88672H125.539C126.242 9.88672 126.997 10.0104 127.805 10.2578C128.625 10.5052 129.38 10.9089 130.07 11.4688C130.773 12.0156 131.359 12.7383 131.828 13.6367C132.297 14.5221 132.531 15.6029 132.531 16.8789V24.0078ZM155.988 14.9648H147.121V31H141.984V14.9648H135.383V9.88672H141.984V2.99219H147.121V9.88672H155.988V14.9648ZM164.484 5.55078H159.406V0.960938H164.484V5.55078ZM164.484 31H159.406V9.88672H164.484V31ZM192.336 23.8711C192.336 24.7435 192.225 25.5312 192.004 26.2344C191.783 26.9245 191.49 27.5365 191.125 28.0703C190.76 28.5911 190.337 29.0404 189.855 29.418C189.374 29.7826 188.866 30.082 188.332 30.3164C187.811 30.5508 187.277 30.7266 186.73 30.8438C186.197 30.9479 185.689 31 185.207 31H176.047C175.344 31 174.576 30.8763 173.742 30.6289C172.909 30.3815 172.134 29.9779 171.418 29.418C170.715 28.8451 170.122 28.1094 169.641 27.2109C169.172 26.2995 168.938 25.1862 168.938 23.8711V16.9961C168.938 15.694 169.172 14.5938 169.641 13.6953C170.122 12.7839 170.715 12.0482 171.418 11.4883C172.134 10.9154 172.909 10.5052 173.742 10.2578C174.576 10.0104 175.344 9.88672 176.047 9.88672H185.207C186.509 9.88672 187.616 10.1211 188.527 10.5898C189.439 11.0586 190.174 11.651 190.734 12.3672C191.294 13.0703 191.698 13.8385 191.945 14.6719C192.206 15.5052 192.336 16.2799 192.336 16.9961V23.8711ZM187.258 17.0352C187.258 16.332 187.082 15.8112 186.73 15.4727C186.379 15.1341 185.871 14.9648 185.207 14.9648H176.086C175.409 14.9648 174.895 15.1406 174.543 15.4922C174.191 15.8307 174.016 16.332 174.016 16.9961V23.8711C174.016 24.5352 174.191 25.043 174.543 25.3945C174.895 25.7461 175.409 25.9219 176.086 25.9219H185.207C185.897 25.9219 186.411 25.7461 186.75 25.3945C187.089 25.043 187.258 24.5352 187.258 23.8711V17.0352ZM220.07 31H214.992V19.2812C214.992 18.6172 214.875 18.0247 214.641 17.5039C214.419 16.9701 214.113 16.5143 213.723 16.1367C213.332 15.7591 212.87 15.4727 212.336 15.2773C211.815 15.069 211.249 14.9648 210.637 14.9648H201.75V31H196.672V12.4062C196.672 12.0547 196.737 11.7292 196.867 11.4297C196.997 11.1172 197.18 10.8503 197.414 10.6289C197.648 10.3945 197.922 10.2122 198.234 10.082C198.547 9.95182 198.879 9.88672 199.23 9.88672H210.676C211.314 9.88672 211.984 9.95833 212.688 10.1016C213.404 10.2448 214.107 10.4792 214.797 10.8047C215.5 11.1172 216.164 11.5208 216.789 12.0156C217.427 12.4974 217.987 13.0898 218.469 13.793C218.964 14.4831 219.354 15.2839 219.641 16.1953C219.927 17.1068 220.07 18.1354 220.07 19.2812V31Z" fill="white"/>
</svg>
